# xmcd
#
# Track frame offsets: 
#        150
#        19374
#        43774
#        62346
#        84262
#        111856
#        135249
#        159324
#        195307
#        216169
#        236604
#        283527
#        297303
#
# Disc length: 4447 seconds
#
# Revision: 0
# Processed by: cddbd v1.5.2PL0 Copyright (c) Steve Scherf et al.
# Submitted via: ExactAudioCopy v0.95b3
#
DISCID=ad115d0d
DTITLE=Focus  - Focus 9 - New Skin
DYEAR=1900
DGENRE=
TTITLE0=Black Beauty
TTITLE1=Focus 7
TTITLE2=Hurkey Turkey 2
TTITLE3=Sylvia's Stepson - Ubatuba
TTITLE4=Niels' Skin
TTITLE5=Just Like Eddy
TTITLE6=Aya-Yuppie-Hippie-Yee
TTITLE7=Focus 9
TTITLE8=Curtain Call
TTITLE9=Ode To venus
TTITLE10=European Rap(sody)
TTITLE11=Pim
TTITLE12=It Takes 2 2 Tango
EXTD=
EXTT0=
EXTT1=
EXTT2=
EXTT3=
EXTT4=
EXTT5=
EXTT6=
EXTT7=
EXTT8=
EXTT9=
EXTT10=
EXTT11=
EXTT12=
PLAYORDER=
